# xmcd CD database file
# Copyright (C) 1997 Ti Kan
# 
# Track frame offsets:
#     150
#     11067
#     23567
#     35317
#     47667
#     57950
#     68712
#     81262
#     92475
#     104355
#     116565
#     126472
#     134720
#     142320
#     153292
#     165307
#     174997
#     184462
#     196050
#     204870
#     215092
#     226267
#     237382
#     247522
#     257287
# 
# Disc length: 3582 seconds
# 
# Revision: 1
# Processed by: cddbd v1.4b41PL1 Copyright (c) Steve Scherf et al.
# Submitted via: DiscPlay 4.0.4
# 
DISCID=510dfc19
DTITLE=Johnny Cash - I Walk The Line
DYEAR=1900
DGENRE=
TTITLE0=Cry, Cry, Cry
TTITLE1=Folson Prison Blues
TTITLE2=So Doggone Lonesome
TTITLE3=I Walk The Line
TTITLE4=There You Go
TTITLE5=Train Of Love
TTITLE6=Next In Line
TTITLE7=Don't Make Me Go
TTITLE8=Home Of The Blues
TTITLE9=Give My Love To Rose
TTITLE10=Balled Of A Teenage Queen
TTITLE11=Guess Things Happen That Why
TTITLE12=Come In Stranger
TTITLE13=The Ways Of A Woman In Love
TTITLE14=You're The Nearest Thing To Heaven
TTITLE15=It's Just About Time
TTITLE16=Luther Played The Boogie
TTITLE17=Thanks A Lot
TTITLE18=Katy Too
TTITLE19=Straight A's In Love
TTITLE20=Mean Eyed Cat
TTITLE21=Oh Lonesome Me
TTITLE22=Get Rhythm
TTITLE23=Rock Island Line
TTITLE24=Big River
EXTD=
EXTT0=
EXTT1=
EXTT2=
EXTT3=
EXTT4=
EXTT5=
EXTT6=
EXTT7=
EXTT8=
EXTT9=
EXTT10=
EXTT11=
EXTT12=
EXTT13=
EXTT14=
EXTT15=
EXTT16=
EXTT17=
EXTT18=
EXTT19=
EXTT20=
EXTT21=
EXTT22=
EXTT23=
EXTT24=
PLAYORDER=
